<mxfile host="app.diagrams.net" modified="2023-05-04T03:28:30.473Z" agent="Mozilla/5.0 (Macintosh; Intel Mac OS X 10_15_7) AppleWebKit/537.36 (KHTML, like Gecko) Chrome/112.0.0.0 Safari/537.36" etag="BBZ-C_j38BxWCOGh3YmL" version="21.2.7" type="github">
  <diagram id="C5RBs43oDa-KdzZeNtuy" name="Page-1">
    <mxGraphModel dx="2073" dy="698" grid="1" gridSize="10" guides="1" tooltips="1" connect="1" arrows="1" fold="1" page="1" pageScale="1" pageWidth="827" pageHeight="1169" math="0" shadow="0">
      <root>
        <mxCell id="WIyWlLk6GJQsqaUBKTNV-0" />
        <mxCell id="WIyWlLk6GJQsqaUBKTNV-1" parent="WIyWlLk6GJQsqaUBKTNV-0" />
        <mxCell id="zkfFHV4jXpPFQw0GAbJ--0" value="Article" style="swimlane;fontStyle=2;align=center;verticalAlign=top;childLayout=stackLayout;horizontal=1;startSize=26;horizontalStack=0;resizeParent=1;resizeLast=0;collapsible=1;marginBottom=0;rounded=0;shadow=0;strokeWidth=1;" parent="WIyWlLk6GJQsqaUBKTNV-1" vertex="1">
          <mxGeometry x="-155" y="132" width="160" height="208" as="geometry">
            <mxRectangle x="230" y="140" width="160" height="26" as="alternateBounds" />
          </mxGeometry>
        </mxCell>
        <mxCell id="zkfFHV4jXpPFQw0GAbJ--1" value="id : Long" style="text;align=left;verticalAlign=top;spacingLeft=4;spacingRight=4;overflow=hidden;rotatable=0;points=[[0,0.5],[1,0.5]];portConstraint=eastwest;" parent="zkfFHV4jXpPFQw0GAbJ--0" vertex="1">
          <mxGeometry y="26" width="160" height="26" as="geometry" />
        </mxCell>
        <mxCell id="zkfFHV4jXpPFQw0GAbJ--2" value="title : String" style="text;align=left;verticalAlign=top;spacingLeft=4;spacingRight=4;overflow=hidden;rotatable=0;points=[[0,0.5],[1,0.5]];portConstraint=eastwest;rounded=0;shadow=0;html=0;" parent="zkfFHV4jXpPFQw0GAbJ--0" vertex="1">
          <mxGeometry y="52" width="160" height="26" as="geometry" />
        </mxCell>
        <mxCell id="zkfFHV4jXpPFQw0GAbJ--3" value="content : String" style="text;align=left;verticalAlign=top;spacingLeft=4;spacingRight=4;overflow=hidden;rotatable=0;points=[[0,0.5],[1,0.5]];portConstraint=eastwest;rounded=0;shadow=0;html=0;" parent="zkfFHV4jXpPFQw0GAbJ--0" vertex="1">
          <mxGeometry y="78" width="160" height="26" as="geometry" />
        </mxCell>
        <mxCell id="6zSsCWNS18us_6vTDPVD-0" value="hashtag : String" style="text;align=left;verticalAlign=top;spacingLeft=4;spacingRight=4;overflow=hidden;rotatable=0;points=[[0,0.5],[1,0.5]];portConstraint=eastwest;rounded=0;shadow=0;html=0;" parent="zkfFHV4jXpPFQw0GAbJ--0" vertex="1">
          <mxGeometry y="104" width="160" height="26" as="geometry" />
        </mxCell>
        <mxCell id="6zSsCWNS18us_6vTDPVD-3" value="articleComments : List" style="text;align=left;verticalAlign=top;spacingLeft=4;spacingRight=4;overflow=hidden;rotatable=0;points=[[0,0.5],[1,0.5]];portConstraint=eastwest;rounded=0;shadow=0;html=0;" parent="zkfFHV4jXpPFQw0GAbJ--0" vertex="1">
          <mxGeometry y="130" width="160" height="26" as="geometry" />
        </mxCell>
        <mxCell id="6zSsCWNS18us_6vTDPVD-16" value="createBy : User" style="text;align=left;verticalAlign=top;spacingLeft=4;spacingRight=4;overflow=hidden;rotatable=0;points=[[0,0.5],[1,0.5]];portConstraint=eastwest;rounded=0;shadow=0;html=0;" parent="zkfFHV4jXpPFQw0GAbJ--0" vertex="1">
          <mxGeometry y="156" width="160" height="26" as="geometry" />
        </mxCell>
        <mxCell id="zWpJ4uk4Cc3oPhJAFUzk-44" value="lastModifiedBy : User" style="text;align=left;verticalAlign=top;spacingLeft=4;spacingRight=4;overflow=hidden;rotatable=0;points=[[0,0.5],[1,0.5]];portConstraint=eastwest;rounded=0;shadow=0;html=0;" parent="zkfFHV4jXpPFQw0GAbJ--0" vertex="1">
          <mxGeometry y="182" width="160" height="26" as="geometry" />
        </mxCell>
        <mxCell id="zkfFHV4jXpPFQw0GAbJ--17" value="ArticleComment" style="swimlane;fontStyle=0;align=center;verticalAlign=top;childLayout=stackLayout;horizontal=1;startSize=26;horizontalStack=0;resizeParent=1;resizeLast=0;collapsible=1;marginBottom=0;rounded=0;shadow=0;strokeWidth=1;" parent="WIyWlLk6GJQsqaUBKTNV-1" vertex="1">
          <mxGeometry x="225" y="132" width="160" height="156" as="geometry">
            <mxRectangle x="550" y="140" width="160" height="26" as="alternateBounds" />
          </mxGeometry>
        </mxCell>
        <mxCell id="zkfFHV4jXpPFQw0GAbJ--18" value="id : Long" style="text;align=left;verticalAlign=top;spacingLeft=4;spacingRight=4;overflow=hidden;rotatable=0;points=[[0,0.5],[1,0.5]];portConstraint=eastwest;" parent="zkfFHV4jXpPFQw0GAbJ--17" vertex="1">
          <mxGeometry y="26" width="160" height="26" as="geometry" />
        </mxCell>
        <mxCell id="zkfFHV4jXpPFQw0GAbJ--19" value="content : String" style="text;align=left;verticalAlign=top;spacingLeft=4;spacingRight=4;overflow=hidden;rotatable=0;points=[[0,0.5],[1,0.5]];portConstraint=eastwest;rounded=0;shadow=0;html=0;" parent="zkfFHV4jXpPFQw0GAbJ--17" vertex="1">
          <mxGeometry y="52" width="160" height="26" as="geometry" />
        </mxCell>
        <mxCell id="zkfFHV4jXpPFQw0GAbJ--20" value="article : Article" style="text;align=left;verticalAlign=top;spacingLeft=4;spacingRight=4;overflow=hidden;rotatable=0;points=[[0,0.5],[1,0.5]];portConstraint=eastwest;rounded=0;shadow=0;html=0;" parent="zkfFHV4jXpPFQw0GAbJ--17" vertex="1">
          <mxGeometry y="78" width="160" height="26" as="geometry" />
        </mxCell>
        <mxCell id="6zSsCWNS18us_6vTDPVD-17" value="createBy : User" style="text;align=left;verticalAlign=top;spacingLeft=4;spacingRight=4;overflow=hidden;rotatable=0;points=[[0,0.5],[1,0.5]];portConstraint=eastwest;rounded=0;shadow=0;html=0;" parent="zkfFHV4jXpPFQw0GAbJ--17" vertex="1">
          <mxGeometry y="104" width="160" height="26" as="geometry" />
        </mxCell>
        <mxCell id="zWpJ4uk4Cc3oPhJAFUzk-46" value="lastModifiedBy : User" style="text;align=left;verticalAlign=top;spacingLeft=4;spacingRight=4;overflow=hidden;rotatable=0;points=[[0,0.5],[1,0.5]];portConstraint=eastwest;rounded=0;shadow=0;html=0;" parent="zkfFHV4jXpPFQw0GAbJ--17" vertex="1">
          <mxGeometry y="130" width="160" height="26" as="geometry" />
        </mxCell>
        <mxCell id="6zSsCWNS18us_6vTDPVD-7" value="User" style="swimlane;fontStyle=2;align=center;verticalAlign=top;childLayout=stackLayout;horizontal=1;startSize=26;horizontalStack=0;resizeParent=1;resizeLast=0;collapsible=1;marginBottom=0;rounded=0;shadow=0;strokeWidth=1;" parent="WIyWlLk6GJQsqaUBKTNV-1" vertex="1">
          <mxGeometry x="45" y="412" width="160" height="182" as="geometry">
            <mxRectangle x="230" y="140" width="160" height="26" as="alternateBounds" />
          </mxGeometry>
        </mxCell>
        <mxCell id="6zSsCWNS18us_6vTDPVD-13" value="memo : String" style="text;align=left;verticalAlign=top;spacingLeft=4;spacingRight=4;overflow=hidden;rotatable=0;points=[[0,0.5],[1,0.5]];portConstraint=eastwest;rounded=0;shadow=0;html=0;" parent="6zSsCWNS18us_6vTDPVD-7" vertex="1">
          <mxGeometry y="26" width="160" height="26" as="geometry" />
        </mxCell>
        <mxCell id="6zSsCWNS18us_6vTDPVD-8" value="id : Long" style="text;align=left;verticalAlign=top;spacingLeft=4;spacingRight=4;overflow=hidden;rotatable=0;points=[[0,0.5],[1,0.5]];portConstraint=eastwest;" parent="6zSsCWNS18us_6vTDPVD-7" vertex="1">
          <mxGeometry y="52" width="160" height="26" as="geometry" />
        </mxCell>
        <mxCell id="6zSsCWNS18us_6vTDPVD-9" value="username : String" style="text;align=left;verticalAlign=top;spacingLeft=4;spacingRight=4;overflow=hidden;rotatable=0;points=[[0,0.5],[1,0.5]];portConstraint=eastwest;rounded=0;shadow=0;html=0;" parent="6zSsCWNS18us_6vTDPVD-7" vertex="1">
          <mxGeometry y="78" width="160" height="26" as="geometry" />
        </mxCell>
        <mxCell id="6zSsCWNS18us_6vTDPVD-10" value="password : String" style="text;align=left;verticalAlign=top;spacingLeft=4;spacingRight=4;overflow=hidden;rotatable=0;points=[[0,0.5],[1,0.5]];portConstraint=eastwest;rounded=0;shadow=0;html=0;" parent="6zSsCWNS18us_6vTDPVD-7" vertex="1">
          <mxGeometry y="104" width="160" height="26" as="geometry" />
        </mxCell>
        <mxCell id="6zSsCWNS18us_6vTDPVD-11" value="email : String" style="text;align=left;verticalAlign=top;spacingLeft=4;spacingRight=4;overflow=hidden;rotatable=0;points=[[0,0.5],[1,0.5]];portConstraint=eastwest;rounded=0;shadow=0;html=0;" parent="6zSsCWNS18us_6vTDPVD-7" vertex="1">
          <mxGeometry y="130" width="160" height="26" as="geometry" />
        </mxCell>
        <mxCell id="6zSsCWNS18us_6vTDPVD-12" value="nickname : String" style="text;align=left;verticalAlign=top;spacingLeft=4;spacingRight=4;overflow=hidden;rotatable=0;points=[[0,0.5],[1,0.5]];portConstraint=eastwest;rounded=0;shadow=0;html=0;" parent="6zSsCWNS18us_6vTDPVD-7" vertex="1">
          <mxGeometry y="156" width="160" height="26" as="geometry" />
        </mxCell>
        <mxCell id="6zSsCWNS18us_6vTDPVD-18" value="" style="endArrow=none;html=1;rounded=0;exitX=1;exitY=0.5;exitDx=0;exitDy=0;entryX=0;entryY=0.5;entryDx=0;entryDy=0;" parent="WIyWlLk6GJQsqaUBKTNV-1" source="zkfFHV4jXpPFQw0GAbJ--3" target="zkfFHV4jXpPFQw0GAbJ--20" edge="1">
          <mxGeometry width="50" height="50" relative="1" as="geometry">
            <mxPoint x="125" y="322" as="sourcePoint" />
            <mxPoint x="175" y="272" as="targetPoint" />
          </mxGeometry>
        </mxCell>
        <mxCell id="6zSsCWNS18us_6vTDPVD-19" value="1" style="text;html=1;align=center;verticalAlign=middle;resizable=0;points=[];autosize=1;strokeColor=none;fillColor=none;" parent="WIyWlLk6GJQsqaUBKTNV-1" vertex="1">
          <mxGeometry x="9" y="192" width="30" height="30" as="geometry" />
        </mxCell>
        <mxCell id="6zSsCWNS18us_6vTDPVD-20" value="n" style="text;html=1;align=center;verticalAlign=middle;resizable=0;points=[];autosize=1;strokeColor=none;fillColor=none;" parent="WIyWlLk6GJQsqaUBKTNV-1" vertex="1">
          <mxGeometry x="195" y="192" width="30" height="30" as="geometry" />
        </mxCell>
        <mxCell id="6zSsCWNS18us_6vTDPVD-22" value="1" style="text;html=1;align=center;verticalAlign=middle;resizable=0;points=[];autosize=1;strokeColor=none;fillColor=none;" parent="WIyWlLk6GJQsqaUBKTNV-1" vertex="1">
          <mxGeometry x="9" y="392" width="30" height="30" as="geometry" />
        </mxCell>
        <mxCell id="6zSsCWNS18us_6vTDPVD-24" value="" style="endArrow=none;html=1;rounded=0;entryX=0.999;entryY=0.368;entryDx=0;entryDy=0;edgeStyle=orthogonalEdgeStyle;exitX=1;exitY=0.5;exitDx=0;exitDy=0;entryPerimeter=0;" parent="WIyWlLk6GJQsqaUBKTNV-1" source="6zSsCWNS18us_6vTDPVD-17" target="6zSsCWNS18us_6vTDPVD-8" edge="1">
          <mxGeometry width="50" height="50" relative="1" as="geometry">
            <mxPoint x="395" y="402" as="sourcePoint" />
            <mxPoint x="392" y="392" as="targetPoint" />
          </mxGeometry>
        </mxCell>
        <mxCell id="6zSsCWNS18us_6vTDPVD-25" value="1" style="text;html=1;align=center;verticalAlign=middle;resizable=0;points=[];autosize=1;strokeColor=none;fillColor=none;" parent="WIyWlLk6GJQsqaUBKTNV-1" vertex="1">
          <mxGeometry x="205" y="392" width="30" height="30" as="geometry" />
        </mxCell>
        <mxCell id="6zSsCWNS18us_6vTDPVD-26" value="n" style="text;html=1;align=center;verticalAlign=middle;resizable=0;points=[];autosize=1;strokeColor=none;fillColor=none;" parent="WIyWlLk6GJQsqaUBKTNV-1" vertex="1">
          <mxGeometry x="395" y="252" width="30" height="30" as="geometry" />
        </mxCell>
        <mxCell id="zWpJ4uk4Cc3oPhJAFUzk-0" value="&lt;b&gt;&lt;font style=&quot;font-size: 15px;&quot;&gt;v1.0&lt;/font&gt;&lt;/b&gt;" style="text;html=1;align=center;verticalAlign=middle;resizable=0;points=[];autosize=1;strokeColor=none;fillColor=none;" parent="WIyWlLk6GJQsqaUBKTNV-1" vertex="1">
          <mxGeometry x="-160" y="90" width="50" height="30" as="geometry" />
        </mxCell>
        <mxCell id="zWpJ4uk4Cc3oPhJAFUzk-30" value="&lt;b&gt;&lt;font style=&quot;font-size: 15px;&quot;&gt;v2.0&lt;/font&gt;&lt;/b&gt;" style="text;html=1;align=center;verticalAlign=middle;resizable=0;points=[];autosize=1;strokeColor=none;fillColor=none;" parent="WIyWlLk6GJQsqaUBKTNV-1" vertex="1">
          <mxGeometry x="-160" y="680" width="50" height="30" as="geometry" />
        </mxCell>
        <mxCell id="zWpJ4uk4Cc3oPhJAFUzk-32" value="Hashtag" style="swimlane;fontStyle=2;align=center;verticalAlign=top;childLayout=stackLayout;horizontal=1;startSize=26;horizontalStack=0;resizeParent=1;resizeLast=0;collapsible=1;marginBottom=0;rounded=0;shadow=0;strokeWidth=1;" parent="WIyWlLk6GJQsqaUBKTNV-1" vertex="1">
          <mxGeometry x="-130" y="900" width="160" height="80" as="geometry">
            <mxRectangle x="230" y="140" width="160" height="26" as="alternateBounds" />
          </mxGeometry>
        </mxCell>
        <mxCell id="zWpJ4uk4Cc3oPhJAFUzk-33" value="id : Long" style="text;align=left;verticalAlign=top;spacingLeft=4;spacingRight=4;overflow=hidden;rotatable=0;points=[[0,0.5],[1,0.5]];portConstraint=eastwest;" parent="zWpJ4uk4Cc3oPhJAFUzk-32" vertex="1">
          <mxGeometry y="26" width="160" height="26" as="geometry" />
        </mxCell>
        <mxCell id="zWpJ4uk4Cc3oPhJAFUzk-34" value="name : String" style="text;align=left;verticalAlign=top;spacingLeft=4;spacingRight=4;overflow=hidden;rotatable=0;points=[[0,0.5],[1,0.5]];portConstraint=eastwest;rounded=0;shadow=0;html=0;" parent="zWpJ4uk4Cc3oPhJAFUzk-32" vertex="1">
          <mxGeometry y="52" width="160" height="26" as="geometry" />
        </mxCell>
        <mxCell id="zWpJ4uk4Cc3oPhJAFUzk-40" value="ArticleHashtag" style="swimlane;fontStyle=2;align=center;verticalAlign=top;childLayout=stackLayout;horizontal=1;startSize=26;horizontalStack=0;resizeParent=1;resizeLast=0;collapsible=1;marginBottom=0;rounded=0;shadow=0;strokeWidth=1;" parent="WIyWlLk6GJQsqaUBKTNV-1" vertex="1">
          <mxGeometry x="-130" y="730" width="160" height="104" as="geometry">
            <mxRectangle x="230" y="140" width="160" height="26" as="alternateBounds" />
          </mxGeometry>
        </mxCell>
        <mxCell id="zWpJ4uk4Cc3oPhJAFUzk-41" value="id : Long" style="text;align=left;verticalAlign=top;spacingLeft=4;spacingRight=4;overflow=hidden;rotatable=0;points=[[0,0.5],[1,0.5]];portConstraint=eastwest;" parent="zWpJ4uk4Cc3oPhJAFUzk-40" vertex="1">
          <mxGeometry y="26" width="160" height="26" as="geometry" />
        </mxCell>
        <mxCell id="zWpJ4uk4Cc3oPhJAFUzk-42" value="article : Article" style="text;align=left;verticalAlign=top;spacingLeft=4;spacingRight=4;overflow=hidden;rotatable=0;points=[[0,0.5],[1,0.5]];portConstraint=eastwest;rounded=0;shadow=0;html=0;" parent="zWpJ4uk4Cc3oPhJAFUzk-40" vertex="1">
          <mxGeometry y="52" width="160" height="26" as="geometry" />
        </mxCell>
        <mxCell id="zWpJ4uk4Cc3oPhJAFUzk-43" value="hashtag : Hashtag" style="text;align=left;verticalAlign=top;spacingLeft=4;spacingRight=4;overflow=hidden;rotatable=0;points=[[0,0.5],[1,0.5]];portConstraint=eastwest;rounded=0;shadow=0;html=0;" parent="zWpJ4uk4Cc3oPhJAFUzk-40" vertex="1">
          <mxGeometry y="78" width="160" height="26" as="geometry" />
        </mxCell>
        <mxCell id="zWpJ4uk4Cc3oPhJAFUzk-47" value="" style="endArrow=none;html=1;rounded=0;entryX=0.011;entryY=0.869;entryDx=0;entryDy=0;edgeStyle=orthogonalEdgeStyle;entryPerimeter=0;exitX=1;exitY=0.5;exitDx=0;exitDy=0;" parent="WIyWlLk6GJQsqaUBKTNV-1" source="zWpJ4uk4Cc3oPhJAFUzk-46" target="6zSsCWNS18us_6vTDPVD-25" edge="1">
          <mxGeometry width="50" height="50" relative="1" as="geometry">
            <mxPoint x="395" y="259" as="sourcePoint" />
            <mxPoint x="215" y="431" as="targetPoint" />
            <Array as="points">
              <mxPoint x="395" y="275" />
              <mxPoint x="395" y="418" />
            </Array>
          </mxGeometry>
        </mxCell>
        <mxCell id="zWpJ4uk4Cc3oPhJAFUzk-48" value="" style="endArrow=none;html=1;rounded=0;entryX=-0.001;entryY=0.537;entryDx=0;entryDy=0;edgeStyle=orthogonalEdgeStyle;exitX=0;exitY=0.5;exitDx=0;exitDy=0;entryPerimeter=0;" parent="WIyWlLk6GJQsqaUBKTNV-1" source="6zSsCWNS18us_6vTDPVD-16" target="6zSsCWNS18us_6vTDPVD-8" edge="1">
          <mxGeometry width="50" height="50" relative="1" as="geometry">
            <mxPoint x="-120.03999999999996" y="392" as="sourcePoint" />
            <mxPoint x="-300.03999999999996" y="535" as="targetPoint" />
            <Array as="points">
              <mxPoint x="-165" y="301" />
              <mxPoint x="-165" y="422" />
            </Array>
          </mxGeometry>
        </mxCell>
        <mxCell id="zWpJ4uk4Cc3oPhJAFUzk-50" value="" style="endArrow=none;html=1;rounded=0;entryX=0;entryY=0.538;entryDx=0;entryDy=0;edgeStyle=orthogonalEdgeStyle;exitX=0;exitY=0.5;exitDx=0;exitDy=0;entryPerimeter=0;" parent="WIyWlLk6GJQsqaUBKTNV-1" source="zWpJ4uk4Cc3oPhJAFUzk-44" target="6zSsCWNS18us_6vTDPVD-8" edge="1">
          <mxGeometry width="50" height="50" relative="1" as="geometry">
            <mxPoint x="-145" y="311" as="sourcePoint" />
            <mxPoint x="55" y="432" as="targetPoint" />
            <Array as="points">
              <mxPoint x="-165" y="327" />
              <mxPoint x="-165" y="422" />
            </Array>
          </mxGeometry>
        </mxCell>
        <mxCell id="zWpJ4uk4Cc3oPhJAFUzk-51" value="n" style="text;html=1;align=center;verticalAlign=middle;resizable=0;points=[];autosize=1;strokeColor=none;fillColor=none;" parent="WIyWlLk6GJQsqaUBKTNV-1" vertex="1">
          <mxGeometry x="-190" y="302" width="30" height="30" as="geometry" />
        </mxCell>
        <mxCell id="zWpJ4uk4Cc3oPhJAFUzk-57" value="Article" style="swimlane;fontStyle=2;align=center;verticalAlign=top;childLayout=stackLayout;horizontal=1;startSize=26;horizontalStack=0;resizeParent=1;resizeLast=0;collapsible=1;marginBottom=0;rounded=0;shadow=0;strokeWidth=1;" parent="WIyWlLk6GJQsqaUBKTNV-1" vertex="1">
          <mxGeometry x="115" y="730" width="195" height="208" as="geometry">
            <mxRectangle x="230" y="140" width="160" height="26" as="alternateBounds" />
          </mxGeometry>
        </mxCell>
        <mxCell id="zWpJ4uk4Cc3oPhJAFUzk-58" value="id : Long" style="text;align=left;verticalAlign=top;spacingLeft=4;spacingRight=4;overflow=hidden;rotatable=0;points=[[0,0.5],[1,0.5]];portConstraint=eastwest;" parent="zWpJ4uk4Cc3oPhJAFUzk-57" vertex="1">
          <mxGeometry y="26" width="195" height="26" as="geometry" />
        </mxCell>
        <mxCell id="zWpJ4uk4Cc3oPhJAFUzk-59" value="title : String" style="text;align=left;verticalAlign=top;spacingLeft=4;spacingRight=4;overflow=hidden;rotatable=0;points=[[0,0.5],[1,0.5]];portConstraint=eastwest;rounded=0;shadow=0;html=0;" parent="zWpJ4uk4Cc3oPhJAFUzk-57" vertex="1">
          <mxGeometry y="52" width="195" height="26" as="geometry" />
        </mxCell>
        <mxCell id="zWpJ4uk4Cc3oPhJAFUzk-60" value="content : String" style="text;align=left;verticalAlign=top;spacingLeft=4;spacingRight=4;overflow=hidden;rotatable=0;points=[[0,0.5],[1,0.5]];portConstraint=eastwest;rounded=0;shadow=0;html=0;" parent="zWpJ4uk4Cc3oPhJAFUzk-57" vertex="1">
          <mxGeometry y="78" width="195" height="26" as="geometry" />
        </mxCell>
        <mxCell id="zWpJ4uk4Cc3oPhJAFUzk-61" value="articleHashtags : List" style="text;align=left;verticalAlign=top;spacingLeft=4;spacingRight=4;overflow=hidden;rotatable=0;points=[[0,0.5],[1,0.5]];portConstraint=eastwest;rounded=0;shadow=0;html=0;" parent="zWpJ4uk4Cc3oPhJAFUzk-57" vertex="1">
          <mxGeometry y="104" width="195" height="26" as="geometry" />
        </mxCell>
        <mxCell id="zWpJ4uk4Cc3oPhJAFUzk-62" value="articleComments : List" style="text;align=left;verticalAlign=top;spacingLeft=4;spacingRight=4;overflow=hidden;rotatable=0;points=[[0,0.5],[1,0.5]];portConstraint=eastwest;rounded=0;shadow=0;html=0;" parent="zWpJ4uk4Cc3oPhJAFUzk-57" vertex="1">
          <mxGeometry y="130" width="195" height="26" as="geometry" />
        </mxCell>
        <mxCell id="zWpJ4uk4Cc3oPhJAFUzk-63" value="createBy : User" style="text;align=left;verticalAlign=top;spacingLeft=4;spacingRight=4;overflow=hidden;rotatable=0;points=[[0,0.5],[1,0.5]];portConstraint=eastwest;rounded=0;shadow=0;html=0;" parent="zWpJ4uk4Cc3oPhJAFUzk-57" vertex="1">
          <mxGeometry y="156" width="195" height="26" as="geometry" />
        </mxCell>
        <mxCell id="zWpJ4uk4Cc3oPhJAFUzk-64" value="lastModifiedBy : User" style="text;align=left;verticalAlign=top;spacingLeft=4;spacingRight=4;overflow=hidden;rotatable=0;points=[[0,0.5],[1,0.5]];portConstraint=eastwest;rounded=0;shadow=0;html=0;" parent="zWpJ4uk4Cc3oPhJAFUzk-57" vertex="1">
          <mxGeometry y="182" width="195" height="26" as="geometry" />
        </mxCell>
        <mxCell id="zWpJ4uk4Cc3oPhJAFUzk-65" value="ArticleComment" style="swimlane;fontStyle=0;align=center;verticalAlign=top;childLayout=stackLayout;horizontal=1;startSize=26;horizontalStack=0;resizeParent=1;resizeLast=0;collapsible=1;marginBottom=0;rounded=0;shadow=0;strokeWidth=1;" parent="WIyWlLk6GJQsqaUBKTNV-1" vertex="1">
          <mxGeometry x="414" y="730" width="226" height="210" as="geometry">
            <mxRectangle x="550" y="140" width="160" height="26" as="alternateBounds" />
          </mxGeometry>
        </mxCell>
        <mxCell id="zWpJ4uk4Cc3oPhJAFUzk-66" value="id : Long" style="text;align=left;verticalAlign=top;spacingLeft=4;spacingRight=4;overflow=hidden;rotatable=0;points=[[0,0.5],[1,0.5]];portConstraint=eastwest;" parent="zWpJ4uk4Cc3oPhJAFUzk-65" vertex="1">
          <mxGeometry y="26" width="226" height="26" as="geometry" />
        </mxCell>
        <mxCell id="zWpJ4uk4Cc3oPhJAFUzk-67" value="content : String" style="text;align=left;verticalAlign=top;spacingLeft=4;spacingRight=4;overflow=hidden;rotatable=0;points=[[0,0.5],[1,0.5]];portConstraint=eastwest;rounded=0;shadow=0;html=0;" parent="zWpJ4uk4Cc3oPhJAFUzk-65" vertex="1">
          <mxGeometry y="52" width="226" height="26" as="geometry" />
        </mxCell>
        <mxCell id="zWpJ4uk4Cc3oPhJAFUzk-68" value="article : Article" style="text;align=left;verticalAlign=top;spacingLeft=4;spacingRight=4;overflow=hidden;rotatable=0;points=[[0,0.5],[1,0.5]];portConstraint=eastwest;rounded=0;shadow=0;html=0;" parent="zWpJ4uk4Cc3oPhJAFUzk-65" vertex="1">
          <mxGeometry y="78" width="226" height="26" as="geometry" />
        </mxCell>
        <mxCell id="zWpJ4uk4Cc3oPhJAFUzk-69" value="createBy : User" style="text;align=left;verticalAlign=top;spacingLeft=4;spacingRight=4;overflow=hidden;rotatable=0;points=[[0,0.5],[1,0.5]];portConstraint=eastwest;rounded=0;shadow=0;html=0;" parent="zWpJ4uk4Cc3oPhJAFUzk-65" vertex="1">
          <mxGeometry y="104" width="226" height="26" as="geometry" />
        </mxCell>
        <mxCell id="zWpJ4uk4Cc3oPhJAFUzk-70" value="lastModifiedBy : User" style="text;align=left;verticalAlign=top;spacingLeft=4;spacingRight=4;overflow=hidden;rotatable=0;points=[[0,0.5],[1,0.5]];portConstraint=eastwest;rounded=0;shadow=0;html=0;" parent="zWpJ4uk4Cc3oPhJAFUzk-65" vertex="1">
          <mxGeometry y="130" width="226" height="26" as="geometry" />
        </mxCell>
        <mxCell id="2rw1vhzCIvPVtKS3Pgx3-4" value="parentArticleComment : ArticleComment" style="text;align=left;verticalAlign=top;spacingLeft=4;spacingRight=4;overflow=hidden;rotatable=0;points=[[0,0.5],[1,0.5]];portConstraint=eastwest;rounded=0;shadow=0;html=0;" vertex="1" parent="zWpJ4uk4Cc3oPhJAFUzk-65">
          <mxGeometry y="156" width="226" height="26" as="geometry" />
        </mxCell>
        <mxCell id="2rw1vhzCIvPVtKS3Pgx3-5" value="childArticleComments : Set" style="text;align=left;verticalAlign=top;spacingLeft=4;spacingRight=4;overflow=hidden;rotatable=0;points=[[0,0.5],[1,0.5]];portConstraint=eastwest;rounded=0;shadow=0;html=0;" vertex="1" parent="zWpJ4uk4Cc3oPhJAFUzk-65">
          <mxGeometry y="182" width="226" height="26" as="geometry" />
        </mxCell>
        <mxCell id="zWpJ4uk4Cc3oPhJAFUzk-71" value="User" style="swimlane;fontStyle=2;align=center;verticalAlign=top;childLayout=stackLayout;horizontal=1;startSize=26;horizontalStack=0;resizeParent=1;resizeLast=0;collapsible=1;marginBottom=0;rounded=0;shadow=0;strokeWidth=1;" parent="WIyWlLk6GJQsqaUBKTNV-1" vertex="1">
          <mxGeometry x="280" y="980" width="160" height="182" as="geometry">
            <mxRectangle x="230" y="140" width="160" height="26" as="alternateBounds" />
          </mxGeometry>
        </mxCell>
        <mxCell id="zWpJ4uk4Cc3oPhJAFUzk-72" value="id : Long" style="text;align=left;verticalAlign=top;spacingLeft=4;spacingRight=4;overflow=hidden;rotatable=0;points=[[0,0.5],[1,0.5]];portConstraint=eastwest;" parent="zWpJ4uk4Cc3oPhJAFUzk-71" vertex="1">
          <mxGeometry y="26" width="160" height="26" as="geometry" />
        </mxCell>
        <mxCell id="zWpJ4uk4Cc3oPhJAFUzk-73" value="username : String" style="text;align=left;verticalAlign=top;spacingLeft=4;spacingRight=4;overflow=hidden;rotatable=0;points=[[0,0.5],[1,0.5]];portConstraint=eastwest;rounded=0;shadow=0;html=0;" parent="zWpJ4uk4Cc3oPhJAFUzk-71" vertex="1">
          <mxGeometry y="52" width="160" height="26" as="geometry" />
        </mxCell>
        <mxCell id="zWpJ4uk4Cc3oPhJAFUzk-74" value="password : String" style="text;align=left;verticalAlign=top;spacingLeft=4;spacingRight=4;overflow=hidden;rotatable=0;points=[[0,0.5],[1,0.5]];portConstraint=eastwest;rounded=0;shadow=0;html=0;" parent="zWpJ4uk4Cc3oPhJAFUzk-71" vertex="1">
          <mxGeometry y="78" width="160" height="26" as="geometry" />
        </mxCell>
        <mxCell id="zWpJ4uk4Cc3oPhJAFUzk-75" value="email : String" style="text;align=left;verticalAlign=top;spacingLeft=4;spacingRight=4;overflow=hidden;rotatable=0;points=[[0,0.5],[1,0.5]];portConstraint=eastwest;rounded=0;shadow=0;html=0;" parent="zWpJ4uk4Cc3oPhJAFUzk-71" vertex="1">
          <mxGeometry y="104" width="160" height="26" as="geometry" />
        </mxCell>
        <mxCell id="zWpJ4uk4Cc3oPhJAFUzk-76" value="nickname : String" style="text;align=left;verticalAlign=top;spacingLeft=4;spacingRight=4;overflow=hidden;rotatable=0;points=[[0,0.5],[1,0.5]];portConstraint=eastwest;rounded=0;shadow=0;html=0;" parent="zWpJ4uk4Cc3oPhJAFUzk-71" vertex="1">
          <mxGeometry y="130" width="160" height="26" as="geometry" />
        </mxCell>
        <mxCell id="zWpJ4uk4Cc3oPhJAFUzk-77" value="memo : String" style="text;align=left;verticalAlign=top;spacingLeft=4;spacingRight=4;overflow=hidden;rotatable=0;points=[[0,0.5],[1,0.5]];portConstraint=eastwest;rounded=0;shadow=0;html=0;" parent="zWpJ4uk4Cc3oPhJAFUzk-71" vertex="1">
          <mxGeometry y="156" width="160" height="26" as="geometry" />
        </mxCell>
        <mxCell id="zWpJ4uk4Cc3oPhJAFUzk-78" value="" style="endArrow=none;html=1;rounded=0;exitX=1;exitY=0.5;exitDx=0;exitDy=0;entryX=0;entryY=0.5;entryDx=0;entryDy=0;edgeStyle=orthogonalEdgeStyle;" parent="WIyWlLk6GJQsqaUBKTNV-1" source="zWpJ4uk4Cc3oPhJAFUzk-62" target="zWpJ4uk4Cc3oPhJAFUzk-68" edge="1">
          <mxGeometry width="50" height="50" relative="1" as="geometry">
            <mxPoint x="395" y="920" as="sourcePoint" />
            <mxPoint x="445" y="870" as="targetPoint" />
          </mxGeometry>
        </mxCell>
        <mxCell id="zWpJ4uk4Cc3oPhJAFUzk-79" value="1" style="text;html=1;align=center;verticalAlign=middle;resizable=0;points=[];autosize=1;strokeColor=none;fillColor=none;" parent="WIyWlLk6GJQsqaUBKTNV-1" vertex="1">
          <mxGeometry x="310" y="870" width="30" height="30" as="geometry" />
        </mxCell>
        <mxCell id="zWpJ4uk4Cc3oPhJAFUzk-80" value="n" style="text;html=1;align=center;verticalAlign=middle;resizable=0;points=[];autosize=1;strokeColor=none;fillColor=none;" parent="WIyWlLk6GJQsqaUBKTNV-1" vertex="1">
          <mxGeometry x="384" y="793" width="30" height="30" as="geometry" />
        </mxCell>
        <mxCell id="zWpJ4uk4Cc3oPhJAFUzk-81" value="1" style="text;html=1;align=center;verticalAlign=middle;resizable=0;points=[];autosize=1;strokeColor=none;fillColor=none;" parent="WIyWlLk6GJQsqaUBKTNV-1" vertex="1">
          <mxGeometry x="250" y="990" width="30" height="30" as="geometry" />
        </mxCell>
        <mxCell id="zWpJ4uk4Cc3oPhJAFUzk-82" value="" style="endArrow=none;html=1;rounded=0;entryX=0.999;entryY=0.368;entryDx=0;entryDy=0;edgeStyle=orthogonalEdgeStyle;exitX=1;exitY=0.5;exitDx=0;exitDy=0;entryPerimeter=0;" parent="WIyWlLk6GJQsqaUBKTNV-1" source="zWpJ4uk4Cc3oPhJAFUzk-69" target="zWpJ4uk4Cc3oPhJAFUzk-72" edge="1">
          <mxGeometry width="50" height="50" relative="1" as="geometry">
            <mxPoint x="665" y="1000" as="sourcePoint" />
            <mxPoint x="662" y="990" as="targetPoint" />
            <Array as="points">
              <mxPoint x="670" y="847" />
              <mxPoint x="670" y="1016" />
            </Array>
          </mxGeometry>
        </mxCell>
        <mxCell id="zWpJ4uk4Cc3oPhJAFUzk-83" value="1" style="text;html=1;align=center;verticalAlign=middle;resizable=0;points=[];autosize=1;strokeColor=none;fillColor=none;" parent="WIyWlLk6GJQsqaUBKTNV-1" vertex="1">
          <mxGeometry x="440" y="990" width="30" height="30" as="geometry" />
        </mxCell>
        <mxCell id="zWpJ4uk4Cc3oPhJAFUzk-84" value="n" style="text;html=1;align=center;verticalAlign=middle;resizable=0;points=[];autosize=1;strokeColor=none;fillColor=none;" parent="WIyWlLk6GJQsqaUBKTNV-1" vertex="1">
          <mxGeometry x="670" y="856" width="30" height="30" as="geometry" />
        </mxCell>
        <mxCell id="zWpJ4uk4Cc3oPhJAFUzk-85" value="" style="endArrow=none;html=1;rounded=0;entryX=0.011;entryY=0.869;entryDx=0;entryDy=0;edgeStyle=orthogonalEdgeStyle;entryPerimeter=0;exitX=1;exitY=0.5;exitDx=0;exitDy=0;" parent="WIyWlLk6GJQsqaUBKTNV-1" source="zWpJ4uk4Cc3oPhJAFUzk-70" target="zWpJ4uk4Cc3oPhJAFUzk-83" edge="1">
          <mxGeometry width="50" height="50" relative="1" as="geometry">
            <mxPoint x="665" y="857" as="sourcePoint" />
            <mxPoint x="485" y="1029" as="targetPoint" />
            <Array as="points">
              <mxPoint x="670" y="873" />
              <mxPoint x="670" y="1016" />
            </Array>
          </mxGeometry>
        </mxCell>
        <mxCell id="zWpJ4uk4Cc3oPhJAFUzk-86" value="" style="endArrow=none;html=1;rounded=0;entryX=-0.001;entryY=0.537;entryDx=0;entryDy=0;edgeStyle=orthogonalEdgeStyle;exitX=0;exitY=0.5;exitDx=0;exitDy=0;entryPerimeter=0;" parent="WIyWlLk6GJQsqaUBKTNV-1" source="zWpJ4uk4Cc3oPhJAFUzk-63" target="zWpJ4uk4Cc3oPhJAFUzk-72" edge="1">
          <mxGeometry width="50" height="50" relative="1" as="geometry">
            <mxPoint x="149.96000000000004" y="990" as="sourcePoint" />
            <mxPoint x="-30.039999999999964" y="1133" as="targetPoint" />
            <Array as="points">
              <mxPoint x="105" y="899" />
              <mxPoint x="105" y="1020" />
            </Array>
          </mxGeometry>
        </mxCell>
        <mxCell id="zWpJ4uk4Cc3oPhJAFUzk-87" value="" style="endArrow=none;html=1;rounded=0;entryX=0;entryY=0.538;entryDx=0;entryDy=0;edgeStyle=orthogonalEdgeStyle;exitX=0;exitY=0.5;exitDx=0;exitDy=0;entryPerimeter=0;" parent="WIyWlLk6GJQsqaUBKTNV-1" source="zWpJ4uk4Cc3oPhJAFUzk-64" target="zWpJ4uk4Cc3oPhJAFUzk-72" edge="1">
          <mxGeometry width="50" height="50" relative="1" as="geometry">
            <mxPoint x="125" y="909" as="sourcePoint" />
            <mxPoint x="325" y="1030" as="targetPoint" />
            <Array as="points">
              <mxPoint x="105" y="925" />
              <mxPoint x="105" y="1020" />
            </Array>
          </mxGeometry>
        </mxCell>
        <mxCell id="zWpJ4uk4Cc3oPhJAFUzk-88" value="n" style="text;html=1;align=center;verticalAlign=middle;resizable=0;points=[];autosize=1;strokeColor=none;fillColor=none;" parent="WIyWlLk6GJQsqaUBKTNV-1" vertex="1">
          <mxGeometry x="80" y="900" width="30" height="30" as="geometry" />
        </mxCell>
        <mxCell id="zWpJ4uk4Cc3oPhJAFUzk-89" value="" style="endArrow=none;html=1;rounded=0;entryX=0;entryY=0.5;entryDx=0;entryDy=0;edgeStyle=orthogonalEdgeStyle;exitX=0;exitY=0.5;exitDx=0;exitDy=0;" parent="WIyWlLk6GJQsqaUBKTNV-1" source="zWpJ4uk4Cc3oPhJAFUzk-43" target="zWpJ4uk4Cc3oPhJAFUzk-33" edge="1">
          <mxGeometry width="50" height="50" relative="1" as="geometry">
            <mxPoint x="-300.03" y="867.48" as="sourcePoint" />
            <mxPoint x="-135.02999999999997" y="962.48" as="targetPoint" />
            <Array as="points">
              <mxPoint x="-170" y="821" />
              <mxPoint x="-170" y="940" />
              <mxPoint x="-130" y="940" />
            </Array>
          </mxGeometry>
        </mxCell>
        <mxCell id="zWpJ4uk4Cc3oPhJAFUzk-90" value="n" style="text;html=1;align=center;verticalAlign=middle;resizable=0;points=[];autosize=1;strokeColor=none;fillColor=none;" parent="WIyWlLk6GJQsqaUBKTNV-1" vertex="1">
          <mxGeometry x="-160" y="820" width="30" height="30" as="geometry" />
        </mxCell>
        <mxCell id="zWpJ4uk4Cc3oPhJAFUzk-91" value="1" style="text;html=1;align=center;verticalAlign=middle;resizable=0;points=[];autosize=1;strokeColor=none;fillColor=none;" parent="WIyWlLk6GJQsqaUBKTNV-1" vertex="1">
          <mxGeometry x="-160" y="940" width="30" height="30" as="geometry" />
        </mxCell>
        <mxCell id="zWpJ4uk4Cc3oPhJAFUzk-92" value="" style="endArrow=none;html=1;rounded=0;entryX=0;entryY=0.5;entryDx=0;entryDy=0;edgeStyle=orthogonalEdgeStyle;" parent="WIyWlLk6GJQsqaUBKTNV-1" target="zWpJ4uk4Cc3oPhJAFUzk-61" edge="1">
          <mxGeometry width="50" height="50" relative="1" as="geometry">
            <mxPoint x="30" y="795" as="sourcePoint" />
            <mxPoint x="150" y="1115" as="targetPoint" />
            <Array as="points">
              <mxPoint x="60" y="795" />
              <mxPoint x="60" y="847" />
            </Array>
          </mxGeometry>
        </mxCell>
        <mxCell id="zWpJ4uk4Cc3oPhJAFUzk-93" value="1" style="text;html=1;align=center;verticalAlign=middle;resizable=0;points=[];autosize=1;strokeColor=none;fillColor=none;" parent="WIyWlLk6GJQsqaUBKTNV-1" vertex="1">
          <mxGeometry x="85" y="819" width="30" height="30" as="geometry" />
        </mxCell>
        <mxCell id="zWpJ4uk4Cc3oPhJAFUzk-96" value="" style="endArrow=none;html=1;rounded=0;entryX=0;entryY=0.5;entryDx=0;entryDy=0;edgeStyle=orthogonalEdgeStyle;exitX=1;exitY=0.5;exitDx=0;exitDy=0;" parent="WIyWlLk6GJQsqaUBKTNV-1" source="zWpJ4uk4Cc3oPhJAFUzk-42" edge="1">
          <mxGeometry width="50" height="50" relative="1" as="geometry">
            <mxPoint x="30" y="795" as="sourcePoint" />
            <mxPoint x="30" y="781.0000000000002" as="targetPoint" />
            <Array as="points" />
          </mxGeometry>
        </mxCell>
        <mxCell id="zWpJ4uk4Cc3oPhJAFUzk-97" value="n" style="text;html=1;align=center;verticalAlign=middle;resizable=0;points=[];autosize=1;strokeColor=none;fillColor=none;" parent="WIyWlLk6GJQsqaUBKTNV-1" vertex="1">
          <mxGeometry x="30" y="763" width="30" height="30" as="geometry" />
        </mxCell>
      </root>
    </mxGraphModel>
  </diagram>
</mxfile>
